<?xml version="1.0" standalone="no"?>
<!DOCTYPE svg PUBLIC "-//W3C//DTD SVG 20010904//EN"
 "http://www.w3.org/TR/2001/REC-SVG-20010904/DTD/svg10.dtd">
<svg version="1.0" xmlns="http://www.w3.org/2000/svg"
 width="500.000000pt" height="500.000000pt" viewBox="0 0 300.000000 300.000000"
 preserveAspectRatio="xMidYMid meet">
<metadata>
Created by potrace 1.10, written by Peter Selinger 2001-2011
</metadata>
<g transform="translate(0.000000,300.000000) scale(0.100000,-0.100000)"
fill="#fff" stroke="none">
<path d="M1435 2678 c-38 -4 -81 -11 -95 -16 -54 -19 -90 -37 -90 -44 0 -4 -5
-8 -11 -8 -21 0 -125 -118 -157 -178 l-33 -62 -37 30 c-30 24 -49 30 -97 33
-57 4 -62 2 -92 -29 -17 -19 -39 -54 -49 -79 -16 -42 -16 -48 0 -87 16 -41 15
-42 -8 -67 -30 -32 -39 -63 -31 -101 7 -32 28 -43 88 -48 16 -2 16 -4 2 -32
-13 -26 -14 -48 -5 -167 6 -76 15 -154 20 -173 5 -19 13 -51 18 -70 16 -62 79
-186 113 -221 9 -9 21 -23 25 -30 12 -20 118 -99 132 -99 6 0 27 -20 48 -44
53 -63 99 -86 184 -90 80 -4 148 7 194 30 48 24 136 52 186 59 25 3 63 14 85
23 40 16 164 108 198 146 21 23 70 104 74 121 3 16 25 79 34 97 12 24 30 132
36 208 2 36 8 93 12 126 7 62 -5 104 -27 90 -5 -3 -12 -65 -16 -138 -20 -398
-147 -600 -404 -641 -37 -6 -98 -25 -137 -44 -88 -42 -174 -57 -255 -44 -74
12 -120 38 -127 71 -3 19 -21 34 -69 59 -114 59 -221 202 -258 346 -19 74 -34
202 -38 315 l-3 85 186 2 186 3 31 -30 c31 -30 33 -30 143 -30 l112 0 -5 -284
c-4 -258 -6 -286 -24 -317 -28 -47 -80 -59 -130 -30 -47 28 -72 27 -80 -3 -20
-79 22 -119 129 -124 60 -3 80 1 117 20 48 25 83 68 101 127 7 21 13 155 16
326 4 233 8 294 20 312 15 23 17 23 257 23 230 0 242 1 254 20 7 11 20 20 28
20 44 0 59 83 23 128 -11 15 -28 27 -37 27 -18 0 -20 28 -6 92 3 18 3 41 -1
50 -5 10 -8 21 -7 24 1 4 -14 21 -34 38 -29 27 -42 32 -88 32 -53 1 -111 -20
-118 -43 -6 -18 -25 -1 -33 29 -7 30 -63 124 -80 135 -5 3 -23 18 -40 33 -44
40 -153 89 -210 95 -27 3 -81 2 -120 -2z m220 -67 c187 -92 283 -305 181 -400
-71 -66 -186 -11 -186 89 0 64 39 104 110 112 23 3 21 6 -32 61 -79 80 -149
111 -248 111 -108 -1 -178 -31 -255 -108 l-60 -60 40 -6 c56 -8 85 -26 100
-64 26 -62 -15 -142 -82 -164 -80 -26 -145 33 -145 132 0 48 57 165 105 214
89 91 172 124 308 119 85 -2 103 -6 164 -36z m-120 -75 c58 -15 90 -31 119
-57 11 -11 23 -19 28 -19 18 0 6 -29 -26 -63 l-33 -36 -28 29 c-32 33 -94 52
-135 40 -16 -4 -31 -6 -34 -2 -3 3 -6 0 -6 -6 0 -7 -6 -12 -13 -12 -8 0 -26
-21 -40 -47 -19 -34 -27 -42 -27 -27 0 20 -55 83 -75 86 -5 1 -15 6 -21 12
-15 14 21 53 66 73 102 45 146 50 225 29z m-533 -165 c33 -37 35 -61 9 -117
-24 -52 -55 -74 -104 -74 -31 0 -45 7 -73 35 -56 58 -57 113 -3 167 28 28 34
30 86 26 48 -4 61 -10 85 -37z m554 20 c45 -28 61 -73 43 -124 -29 -84 -120
-112 -183 -56 -56 49 -61 125 -11 175 31 31 105 33 151 5z m549 -12 c27 -24
35 -39 35 -66 0 -111 -109 -172 -189 -105 -28 23 -34 36 -39 80 -4 49 -2 54
31 87 30 30 42 35 81 35 36 0 52 -6 81 -31z m-747 -180 c-7 -5 -23 -9 -35 -9
-17 0 -21 4 -16 18 14 40 26 45 46 21 14 -17 15 -24 5 -30z m266 25 c19 -18
13 -34 -13 -34 -14 0 -17 6 -13 25 5 29 6 30 26 9z m-564 -9 c0 -17 -16 -35
-31 -35 -22 0 -23 4 -9 30 6 11 17 17 25 14 8 -4 15 -8 15 -9z m1140 -104 l0
-51 -704 0 c-387 0 -711 -3 -720 -6 -13 -5 -16 3 -16 47 l0 54 720 3 720 3 0
-50z m-583 -97 c3 -8 -2 -36 -11 -63 -13 -41 -16 -98 -16 -309 0 -207 -3 -267
-15 -304 -15 -43 -61 -99 -88 -105 -6 -1 -33 -8 -59 -14 -41 -11 -53 -10 -88
6 -36 16 -60 48 -46 62 3 4 23 1 45 -5 21 -7 46 -12 55 -12 24 0 96 48 102 68
3 9 10 25 15 35 11 20 14 553 4 580 -9 23 -44 31 -107 25 -53 -6 -113 6 -136
25 -24 19 6 24 174 25 137 1 166 -1 171 -14z"/>
<path d="M1160 2390 c-11 -7 -2 -10 33 -10 40 0 54 -5 78 -29 16 -16 29 -26
29 -22 0 15 -52 61 -69 61 -9 0 -25 3 -36 5 -11 3 -27 1 -35 -5z"/>
<path d="M1775 2379 c32 -5 56 -16 68 -30 9 -12 17 -17 17 -11 0 23 -53 52
-94 51 l-41 -1 50 -9z"/>
<path d="M1178 2338 c14 -14 16 -57 3 -77 -5 -8 -16 -11 -31 -6 -16 5 -21 4
-18 -6 6 -18 45 -24 63 -9 7 6 15 33 17 60 3 47 2 50 -21 50 -20 0 -22 -3 -13
-12z"/>
<path d="M1744 2337 c12 -9 17 -23 14 -47 -3 -31 -6 -35 -31 -33 -35 2 -32
-20 3 -25 32 -5 50 22 50 75 0 40 -2 43 -27 43 -24 0 -25 -1 -9 -13z"/>
<path d="M919 2380 c39 -6 60 -15 73 -32 9 -12 18 -18 18 -11 0 26 -52 53 -99
52 l-46 -1 54 -8z"/>
<path d="M888 2341 c8 -5 12 -23 10 -47 -3 -35 -6 -39 -31 -39 -35 1 -29 -19
7 -23 38 -5 45 5 53 66 l6 52 -29 0 c-19 0 -25 -3 -16 -9z"/>
<path d="M1503 2380 c30 -5 55 -17 68 -32 20 -23 20 -23 9 -1 -14 30 -41 43
-87 42 -38 -1 -37 -1 10 -9z"/>
<path d="M1478 2338 c14 -14 15 -57 2 -78 -8 -13 -13 -13 -31 -2 -25 16 -37 8
-19 -13 15 -18 56 -20 67 -3 4 7 10 34 13 60 6 46 5 48 -19 48 -19 0 -22 -3
-13 -12z"/>
<path d="M2000 2383 c87 -13 91 -15 110 -46 11 -18 20 -26 20 -19 0 8 -13 27
-29 43 -25 25 -37 29 -78 28 -26 -1 -37 -3 -23 -6z"/>
<path d="M2009 2336 c7 -8 11 -30 9 -48 -3 -29 -7 -33 -31 -33 -32 1 -31 -18
2 -23 34 -5 49 14 53 68 3 47 2 50 -21 50 -19 0 -21 -3 -12 -14z"/>
<path d="M492 1048 c-40 -51 -43 -75 -37 -255 5 -179 2 -203 -32 -203 -9 0
-31 14 -51 31 l-36 32 -22 -29 c-13 -15 -27 -44 -31 -63 -8 -33 -6 -39 26 -68
37 -34 99 -51 144 -39 35 8 106 74 124 115 12 28 16 80 18 241 3 196 2 206
-18 228 -22 24 -69 30 -85 10z m78 -230 c0 -196 -2 -215 -21 -256 -39 -79
-147 -107 -209 -55 -29 24 -31 30 -26 66 11 67 22 77 40 34 30 -72 115 -71
137 2 6 22 9 112 7 229 l-3 192 38 0 37 0 0 -212z"/>
<path d="M684 943 c-6 -5 -19 -22 -28 -40 -13 -26 -16 -65 -16 -212 0 -172 1
-181 23 -205 21 -24 28 -25 132 -27 115 -2 146 5 165 41 24 45 -3 90 -50 84
-14 -2 -49 0 -77 3 -42 4 -53 9 -53 23 0 23 23 31 68 25 55 -9 102 23 102 68
0 50 -26 68 -98 69 -45 1 -62 5 -67 16 -9 23 13 31 65 25 56 -6 91 12 110 58
11 26 10 32 -8 52 -20 21 -32 23 -139 25 -65 1 -123 -1 -129 -5z m256 -63 l0
-30 -100 0 -100 0 0 -56 0 -56 95 4 95 3 0 -37 0 -38 -95 0 -95 0 2 -55 3 -55
103 0 102 0 0 -34 0 -34 -132 -1 c-72 -1 -134 -4 -138 -6 -3 -2 -7 93 -9 211
l-2 214 135 0 136 0 0 -30z"/>
<path d="M1015 909 c-18 -38 -19 -59 -16 -228 2 -107 7 -191 13 -198 6 -7 7
-13 2 -13 -5 0 -1 -5 8 -10 22 -14 85 16 95 44 3 12 6 54 5 94 -1 39 2 72 6
72 14 0 47 -40 101 -122 63 -96 75 -103 124 -72 l37 24 1 83 c0 45 2 127 4
182 2 61 -1 114 -8 135 -10 30 -17 35 -47 38 -32 3 -38 -1 -58 -36 -15 -27
-22 -57 -22 -91 0 -50 -14 -68 -27 -33 -4 9 -9 19 -12 22 -11 9 -51 69 -51 75
0 20 -63 66 -97 71 -37 4 -39 3 -58 -37z m125 -46 c18 -27 62 -90 97 -142 l63
-94 0 142 0 141 35 0 35 0 0 -210 0 -210 -30 0 c-27 0 -38 13 -131 153 -56 83
-105 156 -109 160 -3 4 -5 -65 -2 -153 l5 -160 -43 0 c-34 0 -41 3 -36 16 3 9
6 103 6 210 l0 194 38 0 c34 0 42 -5 72 -47z"/>
<path d="M1462 925 l-27 -23 3 -199 c2 -109 5 -206 8 -215 6 -21 25 -26 115
-31 38 -3 81 1 102 8 42 14 137 84 137 100 0 6 7 21 16 34 l17 23 16 -33 c21
-44 78 -99 125 -121 50 -24 136 -24 167 1 13 10 40 26 59 36 39 20 52 34 76
83 l16 34 19 -39 c10 -21 39 -58 63 -82 39 -38 50 -43 102 -48 56 -5 62 -3
114 32 66 45 90 67 94 86 14 60 19 79 25 79 8 0 -3 240 -13 267 -9 25 -50 35
-81 21 -42 -19 -55 -68 -55 -203 0 -113 -2 -125 -19 -135 -36 -19 -66 -12 -84
20 -10 17 -17 38 -16 48 1 9 1 66 0 125 -1 98 -3 110 -24 131 -38 38 -68 28
-100 -34 -35 -68 -43 -77 -51 -52 -19 58 -110 112 -188 112 -58 0 -118 -16
-118 -31 0 -5 -6 -9 -14 -9 -16 0 -64 -53 -80 -90 -15 -35 -32 -35 -44 -1 -11
31 -62 94 -70 86 -2 -2 -11 2 -18 10 -20 19 -107 36 -182 34 -51 -1 -69 -6
-90 -24z m255 -38 c90 -48 126 -182 76 -282 -41 -81 -85 -104 -219 -113 l-104
-7 0 215 0 215 107 -5 c74 -4 118 -11 140 -23z m440 8 c93 -47 137 -138 114
-239 -22 -101 -104 -166 -207 -166 -117 0 -194 86 -194 214 1 168 144 262 287
191z m253 -125 c0 -158 9 -189 59 -210 23 -9 38 -9 65 0 60 19 68 42 67 206
l-1 144 41 0 41 0 -4 -147 c-4 -168 -15 -202 -74 -242 -25 -17 -53 -26 -92
-29 -75 -4 -119 19 -149 78 -21 40 -23 58 -23 192 l0 148 35 0 35 0 0 -140z"/>
<path d="M1542 705 l3 -145 59 0 c55 0 61 3 97 39 37 36 39 42 39 97 0 71 -14
101 -59 131 -25 17 -48 23 -88 23 l-54 0 3 -145z m95 99 c33 -9 63 -64 63
-115 0 -53 -19 -83 -60 -98 -26 -8 -34 -7 -49 8 -15 15 -18 32 -16 107 2 49 3
92 4 97 1 8 27 9 58 1z"/>
<path d="M1984 815 c-77 -82 -46 -226 55 -256 33 -10 45 -9 77 7 60 30 79 64
79 140 0 64 -1 66 -42 105 -37 34 -48 39 -89 39 -40 0 -51 -5 -80 -35z m115
-20 c16 -8 36 -31 46 -51 48 -101 -48 -200 -131 -135 -32 25 -35 36 -36 106 0
41 4 53 26 72 31 27 56 29 95 8z"/>
</g>
</svg>
